<svg xmlns="http://www.w3.org/2000/svg" width="32" height="32" fill="#fff">
    <path style="stroke:none;fill-rule:nonzero;fill:#fff;fill-opacity:1" d="M15.332 1.332c-1.102 0-2 .898-2 2v16a3.333 3.333 0 0 0 2 6A3.333 3.333 0 0 0 18.668 22c0-1.055-.496-2-1.336-2.668v-2h5.336v-2.664h-5.336V12h5.336V9.332h-5.336V6.668h5.336V4h-5.336v-.668c0-1.102-.895-2-2-2M0 20v2.668c.895 0 1.055.277 1.719.945.668.668 1.84 1.719 3.613 1.719s2.95-1.05 3.613-1.719c.149-.16.27-.281.387-.398v-3c-1.05.344-1.797 1.023-2.277 1.504-.668.668-.828.949-1.723.949-.89 0-1.05-.281-1.719-.95C2.945 21.056 1.773 20 0 20m21.332 0v2.668c.895 0 1.055.277 1.723.945.664.668 1.84 1.719 3.613 1.719s2.945-1.05 3.613-1.719c.664-.668.824-.945 1.719-.945V20c-1.773 0-2.945 1.055-3.613 1.719-.668.668-.828.949-1.719.949-.895 0-1.055-.281-1.723-.95-.664-.663-1.84-1.718-3.613-1.718m-10.664 6.668c-1.773 0-2.95 1.05-3.613 1.719-.668.668-.828.945-1.723.945-.89 0-1.05-.277-1.719-.945-.48-.48-1.226-1.16-2.281-1.508v3c.121.121.242.242.387.402.668.664 1.84 1.719 3.613 1.719s2.95-1.055 3.613-1.719c.668-.668.828-.949 1.723-.949.89 0 1.05.281 1.719.95.586.57 1.535 1.452 2.945 1.663.215.055.441.055.668.055 1.773 0 2.945-1.055 3.613-1.719.668-.668.828-.949 1.719-.949.895 0 1.055.281 1.723.95.664.663 1.84 1.718 3.613 1.718s2.945-1.055 3.613-1.719c.145-.16.266-.281.387-.402v-3c-1.055.348-1.8 1.027-2.281 1.508-.668.668-.828.945-1.719.945-.895 0-1.055-.277-1.723-.945-.664-.668-1.84-1.719-3.613-1.719s-2.945 1.05-3.613 1.719c-.664.668-.824.945-1.719.945-.293 0-.492-.039-.668-.105-.371-.133-.598-.387-1.05-.84-.669-.668-1.84-1.719-3.614-1.719Zm0 0"/>
</svg>
